<svg width="29" height="29" viewBox="0 0 29 29" fill="none" xmlns="http://www.w3.org/2000/svg">
<path d="M14.308 5.53317C16.3582 5.50162 18.3409 6.26543 19.8401 7.66429L23.8781 3.71573C21.2874 1.28818 17.858 -0.0429552 14.308 0.00105765C11.6555 0.000444746 9.05517 0.737713 6.79774 2.13041C4.54032 3.52311 2.71482 5.51633 1.52539 7.88717L6.15222 11.4794C6.71797 9.75917 7.80943 8.25993 9.27268 7.19309C10.7359 6.12626 12.4972 5.54566 14.308 5.53317Z" fill="#EA4335"/>
<path d="M28.0446 14.6276C28.0615 13.644 27.9599 12.6619 27.7419 11.7026H14.3086V17.0132H22.1947C22.0451 17.9443 21.7087 18.8355 21.2059 19.6332C20.703 20.431 20.0439 21.1187 19.2684 21.6552L23.7838 25.1525C25.191 23.7939 26.2977 22.1552 27.0323 20.3423C27.7669 18.5294 28.1132 16.5826 28.0488 14.6276H28.0446Z" fill="#4285F4"/>
<path d="M6.16958 17.1395C5.85674 16.2286 5.69547 15.2726 5.69218 14.3095C5.69788 13.3479 5.85338 12.3931 6.15307 11.4794L1.52624 7.88721C0.522718 9.87956 0 12.0793 0 14.3102C0 16.541 0.522718 18.7407 1.52624 20.7331L6.16958 17.1395Z" fill="#FBBC05"/>
<path d="M14.3091 28.618C17.7944 28.7165 21.185 27.4764 23.7842 25.1523L19.2688 21.655C17.8048 22.6365 16.0709 23.1367 14.3091 23.0859C12.4998 23.0751 10.7398 22.4949 9.27886 21.4276C7.81789 20.3603 6.7301 18.86 6.1698 17.1396L1.54297 20.7332C2.72919 23.103 4.5517 25.0958 6.8064 26.4884C9.06111 27.8809 11.659 28.6183 14.3091 28.618Z" fill="#34A853"/>
</svg>
